<?xml version="1.0" encoding="UTF-8" standalone="no" ?>
<!DOCTYPE svg PUBLIC "-//W3C//DTD SVG 1.1//EN" "http://www.w3.org/Graphics/SVG/1.1/DTD/svg11.dtd">
<svg xmlns="http://www.w3.org/2000/svg" xmlns:xlink="http://www.w3.org/1999/xlink" version="1.1" width="100" height="100" viewBox="0 0 100 100" xml:space="preserve">
<desc>Created with Fabric.js 4.6.0</desc>
<defs>
</defs>
<g transform="matrix(0.56 0 0 0.58 49.94 82.11)" id="B_NVRsbfcqR6Tk99Vaffg"  >
<path style="stroke: rgb(110,164,19); stroke-width: 0; stroke-dasharray: none; stroke-linecap: butt; stroke-dashoffset: 0; stroke-linejoin: miter; stroke-miterlimit: 4; fill: rgb(84,166,221); fill-rule: nonzero; opacity: 1;" vector-effect="non-scaling-stroke"  transform=" translate(0, 0)" d="M -29.93697 -29.93697 L 29.936980000000002 -29.93697 L 29.936980000000002 29.936980000000002 L -29.93697 29.936980000000002 z" stroke-linecap="round" />
</g>
<g transform="matrix(-0.4 0 0 -0.43 16.62 82.11)" id="E7nZBH3Tkd0wR315cTzcb"  >
<path style="stroke: none; stroke-width: 1; stroke-dasharray: none; stroke-linecap: butt; stroke-dashoffset: 0; stroke-linejoin: miter; stroke-miterlimit: 4; fill: rgb(58,54,54); fill-rule: nonzero; opacity: 1;" vector-effect="non-scaling-stroke"  transform=" translate(-40, -40)" d="M 0 0 L 80 80 L 0 80 L 0 0 z" stroke-linecap="round" />
</g>
<g transform="matrix(0.4 0 0 -0.43 83.32 82.11)" id="5eD9Os5wmkBqR9Db2S3aQ"  >
<path style="stroke: none; stroke-width: 1; stroke-dasharray: none; stroke-linecap: butt; stroke-dashoffset: 0; stroke-linejoin: miter; stroke-miterlimit: 4; fill: rgb(58,54,54); fill-rule: nonzero; opacity: 1;" vector-effect="non-scaling-stroke"  transform=" translate(-40, -40)" d="M 0 0 L 80 80 L 0 80 L 0 0 z" stroke-linecap="round" />
</g>
<g transform="matrix(0.37 0 0 0.74 16.74 32.18)" id="75BOI0lWT6QaTun_w3KjG"  >
<path style="stroke: rgb(113,188,199); stroke-width: 0; stroke-dasharray: none; stroke-linecap: butt; stroke-dashoffset: 0; stroke-linejoin: miter; stroke-miterlimit: 4; fill: rgb(58,54,54); fill-rule: nonzero; opacity: 1;" vector-effect="non-scaling-stroke"  transform=" translate(0, 0)" d="M -43.27453 -43.27453 L 43.27454 -43.27453 L 43.27454 43.27454 L -43.27453 43.27454 z" stroke-linecap="round" />
</g>
<g transform="matrix(-0.37 0 0 0.74 83.14 32.06)" id="QWp0N2SJGmqC5nVTy49fz"  >
<path style="stroke: rgb(113,188,199); stroke-width: 0; stroke-dasharray: none; stroke-linecap: butt; stroke-dashoffset: 0; stroke-linejoin: miter; stroke-miterlimit: 4; fill: rgb(247,47,58); fill-rule: nonzero; opacity: 1;" vector-effect="non-scaling-stroke"  transform=" translate(0, 0)" d="M -43.27453 -43.27453 L 43.27454 -43.27453 L 43.27454 43.27454 L -43.27453 43.27454 z" stroke-linecap="round" />
</g>
</svg>